<?xml version="1.0" encoding="UTF-8" standalone="no"?>
<!DOCTYPE svg PUBLIC "-//W3C//DTD SVG 1.1//EN" "http://www.w3.org/Graphics/SVG/1.1/DTD/svg11.dtd">
<svg xmlns="http://www.w3.org/2000/svg" xmlns:dc="http://purl.org/dc/elements/1.1/" version="1.1" xmlns:xl="http://www.w3.org/1999/xlink" viewBox="289 54 350 259" width="350" height="259">
  <defs>
    <marker orient="auto" overflow="visible" markerUnits="strokeWidth" id="StickArrow_Marker" stroke-linejoin="miter" stroke-miterlimit="10" viewBox="-1 -2 5 4" markerWidth="5" markerHeight="4" color="black">
      <g>
        <path d="M 2.6666667 0 L 0 0 M 0 -1 L 2.6666667 0 L 0 1" fill="none" stroke="currentColor" stroke-width="1"/>
      </g>
    </marker>
  </defs>
  <g id="breeding_cycle_2" fill="none" stroke-opacity="1" stroke-dasharray="none" stroke="none" fill-opacity="1">
    <title>breeding cycle 2</title>
    <g id="breeding_cycle_2_Layer_1">
      <title>Layer 1</title>
      <g id="Graphic_15">
        <text transform="translate(542 155)" fill="black">
          <tspan font-family="Roboto" font-size="24" fill="black" x="14.566402" y="22" xml:space="preserve">Cross</tspan>
        </text>
      </g>
      <g id="Graphic_16">
        <text transform="translate(510 258.5)" fill="black">
          <tspan font-family="Roboto" font-size="24" fill="black" x="17.701168" y="22" xml:space="preserve">Grow</tspan>
        </text>
      </g>
      <g id="Graphic_17">
        <text transform="translate(294 155)" fill="black">
          <tspan font-family="Roboto" font-size="24" fill="black" x="0" y="22" xml:space="preserve">Evaluate</tspan>
        </text>
      </g>
      <g id="Graphic_18">
        <text transform="translate(419 59)" fill="black">
          <tspan font-family="Roboto" font-size="24" fill="black" x="12.169918" y="22" xml:space="preserve">Select</tspan>
        </text>
      </g>
      <g id="Line_21">
        <path d="M 515.2539 89.02181 C 528.0459 94.51948 541.3651 101.5865 552.7273 110.45455 C 560.2984 116.36374 566.2271 122.46888 570.8696 128.40587" marker-end="url(#StickArrow_Marker)" stroke="black" stroke-linecap="round" stroke-linejoin="round" stroke-width="6"/>
      </g>
      <g id="Line_22">
        <path d="M 526.72064 291.5 C 510.8519 299.82125 489.8375 307.72727 467.2727 307.72727 C 455.19705 307.72727 444.11696 305.46305 434.3038 302.08268" marker-end="url(#StickArrow_Marker)" stroke="black" stroke-linecap="round" stroke-linejoin="round" stroke-width="6"/>
      </g>
      <g id="Line_23">
        <path d="M 587.7177 188 C 587.00166 195.67314 585.3395 205.42902 581.8182 216.81818 C 580.33524 221.61457 578.63665 226.33169 576.8326 230.86714" marker-end="url(#StickArrow_Marker)" stroke="black" stroke-linecap="round" stroke-linejoin="round" stroke-width="6"/>
      </g>
      <g id="Line_24">
        <path d="M 337.5209 150 C 339.35047 141.0315 345.34445 129.68092 360.9091 117.72727 C 369.5346 111.10287 380.11147 105.05198 391.17736 99.68822" marker-end="url(#StickArrow_Marker)" stroke="black" stroke-linecap="round" stroke-linejoin="round" stroke-width="6"/>
      </g>
      <g id="Graphic_25">
        <text transform="translate(328.5 258.5)" fill="black">
          <tspan font-family="Roboto" font-size="24" fill="black" x="1.6953125" y="22" xml:space="preserve">Phenotype</tspan>
        </text>
      </g>
      <g id="Line_26">
        <path d="M 358.26426 253.5 C 350.50452 246.67963 342.96375 238.06565 338.1818 227.72727 C 335.87425 222.7384 334.39374 217.7471 333.52566 212.89864" marker-end="url(#StickArrow_Marker)" stroke="black" stroke-linecap="round" stroke-linejoin="round" stroke-width="6"/>
      </g>
    </g>
  </g>
</svg>
